<svg width="30" height="30" viewBox="0 0 30 30" fill="none" xmlns="http://www.w3.org/2000/svg">
<path d="M6.6675 5.68109C7.95091 4.53144 9.45836 3.65983 11.095 3.12109C11.563 3.70737 12.1571 4.18063 12.8331 4.50568C13.5092 4.83073 14.2499 4.99921 15 4.99859C15.7502 4.99921 16.4908 4.83073 17.1669 4.50568C17.8429 4.18063 18.437 3.70737 18.905 3.12109C20.5416 3.65983 22.0491 4.53144 23.3325 5.68109C23.0594 6.37915 22.947 7.12977 23.0037 7.87721C23.0604 8.62465 23.2847 9.34972 23.66 9.99859C24.0345 10.6487 24.5507 11.206 25.1703 11.6291C25.7899 12.0522 26.4969 12.3302 27.2388 12.4423C27.5894 14.1285 27.5894 15.8687 27.2388 17.5548C25.7888 17.7773 24.4513 18.6298 23.66 19.9986C23.2845 20.6476 23.0601 21.3729 23.0034 22.1206C22.9467 22.8683 23.0592 23.6191 23.3325 24.3173C22.049 25.4665 20.5415 26.3377 18.905 26.8761C18.4369 26.29 17.8427 25.817 17.1667 25.4922C16.4906 25.1674 15.75 24.9991 15 24.9998C14.2499 24.9992 13.5092 25.1677 12.8331 25.4928C12.1571 25.8178 11.563 26.2911 11.095 26.8773C9.45846 26.339 7.95103 25.4678 6.6675 24.3186C6.94081 23.6204 7.0533 22.8695 6.9966 22.1218C6.9399 21.3742 6.71548 20.6489 6.34 19.9998C5.96536 19.35 5.44906 18.7929 4.82948 18.37C4.2099 17.9472 3.50297 17.6694 2.76125 17.5573C2.41039 15.8708 2.41039 14.1301 2.76125 12.4436C3.50308 12.3314 4.21008 12.0535 4.82967 11.6304C5.44926 11.2073 5.9655 10.65 6.34 9.99984C6.71529 9.35097 6.93961 8.6259 6.9963 7.87846C7.053 7.13102 6.94062 6.3804 6.6675 5.68234V5.68109ZM16.875 18.2461C17.3049 18.0017 17.6822 17.6746 17.9853 17.2837C18.2883 16.8929 18.511 16.446 18.6405 15.9687C18.7701 15.4914 18.804 14.9932 18.7403 14.5028C18.6765 14.0124 18.5164 13.5394 18.2691 13.1111C18.0218 12.6828 17.6923 12.3077 17.2994 12.0073C16.9066 11.7069 16.4582 11.4871 15.9801 11.3607C15.5019 11.2343 15.0035 11.2037 14.5135 11.2707C14.0235 11.3377 13.5516 11.501 13.125 11.7511C12.2707 12.2519 11.6492 13.0703 11.3961 14.0277C11.143 14.985 11.2788 16.0036 11.774 16.8612C12.2691 17.7188 13.0834 18.3457 14.039 18.6052C14.9947 18.8646 16.0142 18.7355 16.875 18.2461Z" fill="white"/>
</svg>
